<?xml version="1.0" encoding="UTF-8"?>
<svg version="1.1" xmlns="http://www.w3.org/2000/svg" width="691" height="756">
<path d="M0 0 C228.03 0 456.06 0 691 0 C691 249.48 691 498.96 691 756 C462.97 756 234.94 756 0 756 C0 506.52 0 257.04 0 0 Z " fill="#0C5793" transform="translate(0,0)"/>
<path d="M0 0 C23.66704913 13.39258504 37.37310926 47.03038303 48.421875 70.5546875 C50.8632402 75.74675628 53.4137261 80.87890327 56 86 C56.29487305 86.71269043 56.58974609 87.42538086 56.89355469 88.15966797 C58.29101798 90.48404536 59.5194122 90.97728393 62 92 C62.60674561 92.31984863 63.21349121 92.63969727 63.83862305 92.96923828 C70.24771365 96.11980317 76.78236199 97.31379223 83.78375244 98.52163696 C122.00841021 105.17952848 165.17613543 120.28987808 189.4375 152.5625 C194.81870152 160.45714338 198.23540449 168.54915859 201.4375 177.5 C205.33618221 188.27975208 208.98434577 196.02853108 218.375 203.015625 C220.98449178 204.98827652 223.35271759 207.08870513 225.75 209.3125 C229.62182287 212.85712657 233.6448842 216.07045811 237.8125 219.25 C242.91032417 223.17145701 247.63106476 227.33471546 252.1875 231.875 C252.99828003 232.6779248 252.99828003 232.6779248 253.82543945 233.49707031 C260.70129438 240.49690347 262.35175542 245.92171717 262.29296875 255.4921875 C261.69298838 262.6759524 259.72917397 269.96931983 256.890625 276.5859375 C255.85989261 279.37976477 255.72810921 281.71716146 255.625 284.6875 C254.90940844 294.34212052 250.54974161 302.03752224 246.20922852 310.53833008 C243.56103092 315.7573211 241.19319462 321.06520254 238.875 326.4375 C232.57778675 340.85260618 225.01188647 350.84460942 210.296875 357.16015625 C195.28576483 363.00945756 180.5626209 361.03387225 165.02734375 358.33398438 C155.99517248 356.86972453 145.94584684 355.51358195 138 361 C134.32967631 364.65032193 132.2227145 367.81739787 131.6875 373.0625 C132.81727322 387.29764251 143.44910346 400.45078725 151.64697266 411.61865234 C173.50517613 441.48549167 189.62333252 468.97671622 189 507 C186.31386759 504.60518263 184.85136606 502.10436001 183.21484375 498.9140625 C182.68922852 497.90682129 182.16361328 496.89958008 181.62207031 495.86181641 C181.06616211 494.79366699 180.51025391 493.72551758 179.9375 492.625 C174.9891593 483.31201857 169.92777164 474.95834924 163 467 C162.14792969 466.01128906 161.29585938 465.02257812 160.41796875 464.00390625 C158.31983156 461.6216119 156.23453432 459.25489455 154 457 C153.67 457 153.34 457 153 457 C153.38671875 457.93457031 153.7734375 458.86914062 154.171875 459.83203125 C165.99053611 489.30075461 169.89110773 527.30416317 157.37109375 557.13671875 C152.47215683 567.36726223 145.15718879 576.0844289 134.3359375 580.2578125 C96.63564298 592.23616695 55.89442955 573.0372472 23.00030518 556.04144287 C8.30486544 548.39037986 -6.02383236 540.18598346 -19.95703125 531.21875 C-78.97310384 493.32535811 -137.81517593 467.5557263 -206 452 C-205.195625 451.071875 -204.39125 450.14375 -203.5625 449.1875 C-203.00949219 448.53523438 -202.45648438 447.88296875 -201.88671875 447.2109375 C-200.61564479 445.72143883 -199.3260242 444.24759309 -198.01953125 442.7890625 C-175.1743102 416.40678537 -164.89027935 382.54615806 -158.06758118 349.02713013 C-157.92668564 348.33497406 -157.7857901 347.64281799 -157.640625 346.9296875 C-157.50121994 346.24470184 -157.36181488 345.55971619 -157.21818542 344.85397339 C-150.54408248 312.29360706 -139.84192635 279.64616733 -121 252 C-143.3676023 274.81823165 -159.88603012 302.49604272 -174 331 C-174.66 331 -175.32 331 -176 331 C-172.2275355 292.25300692 -162.49133193 253.46786248 -144.44921875 218.7421875 C-142.55898866 215.08960758 -140.69238749 211.42570208 -138.83203125 207.7578125 C-131.93120127 194.22138156 -124.65535039 181.02522091 -116.80712891 168.01855469 C-114.77975385 164.63210979 -112.78260708 161.22901698 -110.79296875 157.8203125 C-110.43132126 157.20073166 -110.06967377 156.58115082 -109.69706726 155.9427948 C-108.95969213 154.67917632 -108.22238271 153.4155195 -107.48513794 152.15182495 C-102.06585442 142.86781776 -96.60009856 133.61835822 -90.95825195 124.46728516 C-87.42452153 118.72639407 -83.98405875 112.93335367 -80.5625 107.125 C-69.87363534 88.98365195 -59.00952793 70.94860091 -48 53 C-47.37657715 51.98260742 -46.7531543 50.96521484 -46.11083984 49.91699219 C-12.95480407 -4.06425226 -12.95480407 -4.06425226 0 0 Z " fill="#E27116" transform="translate(307,79)"/>
<path d="M0 0 C228.03 0 456.06 0 691 0 C691 249.48 691 498.96 691 756 C462.97 756 234.94 756 0 756 C0 506.52 0 257.04 0 0 Z M316.75 18.375 C315.70569824 18.99640869 314.66139648 19.61781738 313.58544922 20.25805664 C311.42834793 21.54244875 309.27388211 22.83127738 307.12207031 24.12451172 C302.47021863 26.91896938 297.79755264 29.67784859 293.125 32.4375 C292.23361328 32.96537109 291.34222656 33.49324219 290.42382812 34.03710938 C280.11646787 40.13349114 269.73448019 46.10008144 259.35400391 52.07080078 C239.33540178 63.57381569 239.33540178 63.57381569 219.40356445 75.22607422 C205.21834053 83.597851 190.97350572 91.86880014 176.71118164 100.10839844 C171.81230163 102.94156069 166.93315881 105.80616464 162.0625 108.6875 C154.03264556 113.4344677 145.92412321 118.04143029 137.81652832 122.65383911 C128.92381465 127.71665998 120.09988453 132.88087455 111.3125 138.125 C101.44631161 144.01274727 91.48254721 149.69276122 81.43774414 155.26953125 C75.30359553 158.68324975 69.29452122 162.20625316 63.35546875 165.94921875 C58.81909515 168.72174045 54.18966216 171.32021815 49.5625 173.9375 C26.4045221 186.59361683 26.4045221 186.59361683 12 208 C11.11185351 211.64727652 10.8724586 215.0365819 10.86577892 218.78509712 C10.86132108 219.9482394 10.85686324 221.11138169 10.85227031 222.3097707 C10.85245467 223.58338896 10.85263903 224.85700722 10.85282898 226.16921997 C10.84952808 227.53925521 10.84580204 228.90928947 10.8416875 230.2793225 C10.8316852 234.04351457 10.82795357 237.8076907 10.82529819 241.57189417 C10.82138992 245.63204784 10.811812 249.69218896 10.80308533 253.75233459 C10.78333649 263.55683696 10.77325707 273.36134033 10.76435754 283.16585761 C10.75997236 287.78479601 10.75460618 292.40373326 10.74936867 297.02267075 C10.73235856 312.37982762 10.71786453 327.73698379 10.71061993 343.09414864 C10.70871009 347.07806525 10.70678975 351.06198185 10.70483398 355.04589844 C10.70435024 356.03606023 10.7038665 357.02622203 10.7033681 358.04638873 C10.69506827 374.08536076 10.66973115 390.12425819 10.63725331 406.16319765 C10.60417003 422.63560132 10.58617005 439.1079671 10.58297569 455.58040416 C10.58081185 464.8268343 10.57208162 474.07315564 10.54651451 483.31955338 C10.52479026 491.19426891 10.51676561 499.06884921 10.52648129 506.94359131 C10.5310209 510.95917294 10.52915973 514.97447562 10.50971985 518.99001884 C10.49205085 522.6716617 10.49311567 526.3528229 10.50861714 530.03447114 C10.51210397 531.98559222 10.49599487 533.93671857 10.47901267 535.88776886 C10.56726244 548.01096414 13.76969119 557.05103637 22 566 C22.52722656 566.58136719 23.05445313 567.16273438 23.59765625 567.76171875 C29.2486347 573.28397331 36.34916102 576.69088089 43.23828125 580.41015625 C47.59303425 582.76163516 51.86966586 585.22389437 56.125 587.75 C57.53121789 588.58208552 58.93746908 589.41411476 60.34375 590.24609375 C61.45363281 590.90327393 61.45363281 590.90327393 62.5859375 591.57373047 C75.34140008 599.10987655 88.14873192 606.55084491 101.0625 613.8125 C107.82424228 617.61559222 114.5413374 621.46856498 121.17480469 625.4909668 C135.35393758 634.0772195 149.76009887 642.29257511 164.125 650.5625 C173.05642692 655.70499702 181.95219414 660.90292395 190.81738281 666.15869141 C200.50801495 671.90187277 210.2419013 677.5701559 219.9765625 683.23828125 C222.96485966 684.97952417 225.95147264 686.72361792 228.9375 688.46875 C247.2999852 699.19846293 265.70561224 709.85216852 284.1875 720.375 C289.99929448 723.68501426 295.77858487 727.03608868 301.5 730.5 C307.58041753 734.16556011 313.68039454 737.79650306 319.8125 741.375 C320.67230469 741.88740234 321.53210938 742.39980469 322.41796875 742.92773438 C332.23212357 748.61239482 341.68092144 751.62906238 352.9921875 749.4140625 C361.62213589 747.1141496 368.58482697 742.96314077 376.03759766 738.23095703 C379.29583417 736.1871615 382.61689768 734.25271154 385.9375 732.3125 C386.63464111 731.90330322 387.33178223 731.49410645 388.05004883 731.07250977 C390.36571988 729.7133283 392.68268947 728.35638431 395 727 C395.88300781 726.48308594 396.76601563 725.96617187 397.67578125 725.43359375 C409.24095326 718.6672483 420.82697602 711.93823016 432.4375 705.25 C444.39621067 698.35907238 456.30888833 691.39834276 468.16015625 684.32421875 C470.4396958 682.96545319 472.71948604 681.60712766 475 680.25 C475.57540527 679.90756256 476.15081055 679.56512512 476.74365234 679.21231079 C486.09945969 673.65182999 495.55460963 668.29146504 505.07177734 663.01098633 C512.32394762 658.97464016 519.45535017 654.77296367 526.54907227 650.46557617 C532.75788819 646.70916474 539.04637196 643.11284814 545.375 639.5625 C553.77320925 634.85071196 562.08844583 630.02016086 570.36303711 625.0949707 C578.00505453 620.55894525 585.71371778 616.14456133 593.4375 611.75 C604.24718565 605.60220706 604.24718565 605.60220706 614.9375 599.25 C620.69562522 595.75518411 626.52106814 592.39422291 632.375 589.0625 C635.91717677 587.04255985 639.45870897 585.02149254 643 583 C644.21381348 582.30825684 644.21381348 582.30825684 645.45214844 581.60253906 C666.66332381 569.6637551 666.66332381 569.6637551 678.35977101 548.96946621 C679.55525712 543.42464448 679.41096549 537.87273358 679.38095093 532.22277832 C679.38441328 530.84771241 679.3891817 529.47264927 679.39513266 528.09759188 C679.40759313 524.34269088 679.40149506 520.58802023 679.39217401 516.83311868 C679.38536342 512.77442676 679.39587467 508.7157734 679.40411377 504.65708923 C679.41743191 496.71546935 679.41458193 488.77393469 679.40587585 480.83231151 C679.39909215 474.37620208 679.39818555 467.92011649 679.4014473 461.46400452 C679.401907 460.54405135 679.40236669 459.62409819 679.40284032 458.67626765 C679.40379953 456.8072193 679.40477217 454.93817095 679.4057581 453.06912261 C679.41430637 435.55581534 679.40448669 418.04255523 679.388357 400.52925569 C679.37495433 385.51215596 679.37728258 370.49512581 679.39111328 355.47802734 C679.40717903 338.02605847 679.41348245 320.5741309 679.40427649 303.12215567 C679.40332087 301.26010228 679.40237776 299.39804888 679.4014473 297.53599548 C679.40075306 296.1618579 679.40075306 296.1618579 679.40004479 294.75995997 C679.39745789 288.31392662 679.40181943 281.86791954 679.40888596 275.42189026 C679.41731221 267.56300724 679.41499717 259.70421409 679.39904372 251.84534132 C679.39117614 247.8380054 679.3880435 243.83081913 679.39799118 239.82348442 C679.40697009 236.150783 679.40195309 232.47836912 679.38605852 228.80569357 C679.38115199 226.85707511 679.39087858 224.90843649 679.40123022 222.95983934 C679.31525883 210.06162596 676.08403501 201.07063528 667.6875 191.3125 C660.4944324 185.12311625 652.0252778 180.61491923 643.8125 175.9375 C641.49812173 174.61166701 639.18418155 173.28511031 636.87109375 171.95703125 C636.29228455 171.62495667 635.71347534 171.29288208 635.11712646 170.95074463 C629.50596998 167.72650128 623.93790243 164.43155497 618.375 161.125 C611.70677741 157.16631608 605.00781588 153.28245784 598.23339844 149.50878906 C592.32051309 146.20479059 586.47148814 142.79485696 580.625 139.375 C572.13967246 134.41178244 563.64175095 129.4716209 555.125 124.5625 C553.50803223 123.63038696 553.50803223 123.63038696 551.85839844 122.67944336 C548.57252917 120.78583769 545.28632866 118.89280828 542 117 C537.62457171 114.47990911 533.24950025 111.95920153 528.875 109.4375 C527.79968018 108.81770264 526.72436035 108.19790527 525.61645508 107.55932617 C518.33314283 103.3571829 511.06952511 99.1223378 503.8125 94.875 C496.07829591 90.34999085 488.30975748 85.89327989 480.5 81.5 C466.77986903 73.77899717 453.20246736 65.81854496 439.62809753 57.84490967 C436.52317379 56.02113719 433.41789563 54.19796884 430.3125 52.375 C429.69549225 52.01269287 429.0784845 51.65038574 428.44277954 51.27709961 C419.84755811 46.23165822 411.2195918 41.24796632 402.55371094 36.32470703 C396.18430612 32.69806631 389.86723115 28.98778953 383.5625 25.25 C380.85950931 23.65065175 378.15634231 22.0516019 375.453125 20.45263672 C373.89745829 19.53143679 372.34266292 18.60876249 370.7890625 17.68408203 C368.88456503 16.55260257 366.97461542 15.4310414 365.0625 14.3125 C363.53302734 13.40951172 363.53302734 13.40951172 361.97265625 12.48828125 C356.45211723 9.72438458 351.33278132 8.70856954 345.1875 8.6875 C344.06730469 8.67074219 342.94710938 8.65398438 341.79296875 8.63671875 C332.25377529 9.55035932 324.84277922 13.46281529 316.75 18.375 Z " fill="#FEFDFD" transform="translate(0,0)"/>
<path d="M0 0 C0.93701117 2.99660093 1.00627798 4.90114478 0.22265625 7.9296875 C-4.85474329 29.41543153 -5.59263663 52.75026751 1 74 C1.24137695 74.77843262 1.48275391 75.55686523 1.73144531 76.35888672 C8.74276568 98.1998111 20.65894851 119.65894851 37 136 C36.855625 135.04480469 36.71125 134.08960938 36.5625 133.10546875 C32.62196794 105.65856838 39.16099688 82.11618354 50.08300781 57.10107422 C51.40415651 54.07396939 52.70138283 51.03682835 54 48 C54.91236351 50.97361381 55.01162489 53.05786946 54.44140625 56.10546875 C54.30234863 56.91129395 54.16329102 57.71711914 54.02001953 58.54736328 C53.86903809 59.4186084 53.71805664 60.28985352 53.5625 61.1875 C49.01336145 90.32961929 52.69782428 119.19616867 65 146 C65.40476562 146.93714844 65.80953125 147.87429688 66.2265625 148.83984375 C73.90157648 165.55880695 87.0873695 179.18110911 100 192 C95.16779397 190.57044136 90.91919804 188.48869943 86.5625 186 C85.86511719 185.60337158 85.16773438 185.20674316 84.44921875 184.7980957 C71.25787653 177.19491797 59.0536493 168.27463223 47 159 C46.08476562 158.30132812 45.16953125 157.60265625 44.2265625 156.8828125 C37.67072971 151.76968725 31.57835321 146.18104609 25.54882812 140.46533203 C24.12968637 139.12269509 22.69824625 137.79308831 21.265625 136.46484375 C0.06880764 116.22254146 -11.89275928 85.08935956 -13.125 56.0546875 C-13.50239528 36.47730759 -8.12972223 17.69833335 0 0 Z " fill="#FEFDFD" transform="translate(249,332)"/>
<path d="M0 0 C1.875 1.0625 1.875 1.0625 3 3 C3.61970744 10.46304819 1.71094501 17.08738536 -0.25 24.25 C-0.42173737 24.88695801 -0.59347473 25.52391602 -0.77041626 26.18017578 C-6.70638717 48.12841722 -14.28638413 69.62293005 -22 91 C-25.53668601 91 -27.81336226 90.06108732 -31.125 88.8125 C-47.44241145 82.85956813 -63.93509537 79.19902673 -81 76 C-79.15232066 72.07611672 -76.64263163 69.00465138 -73.8125 65.75 C-73.28495117 65.13938721 -72.75740234 64.52877441 -72.21386719 63.8996582 C-66.30473407 57.11653026 -60.13520601 50.58262718 -53.94433594 44.05761719 C-52.02800382 42.02963539 -50.12531878 39.98974837 -48.2265625 37.9453125 C-40.57812342 29.72504575 -32.78355759 21.6571037 -24.875 13.6875 C-23.98603027 12.78555908 -23.09706055 11.88361816 -22.18115234 10.9543457 C-8.9965106 -2.24912765 -8.9965106 -2.24912765 0 0 Z " fill="#E37217" transform="translate(452,91)"/>
<path d="M0 0 C1.2206878 2.4413756 0.9346166 3.34530095 0.4765625 6 C0.3425 6.80566406 0.2084375 7.61132812 0.0703125 8.44140625 C-0.07664062 9.28574219 -0.22359375 10.13007812 -0.375 11 C-5.76871506 42.51327964 -5.16351385 75.88425658 10.77734375 104.34765625 C12 107 12 107 11 110 C8.41796875 111.3515625 8.41796875 111.3515625 5.1875 112.625 C4.12917969 113.05039063 3.07085937 113.47578125 1.98046875 113.9140625 C-6.63918906 117.05464556 -15.24237339 117.2125055 -23.70703125 113.390625 C-29.38484311 109.94718203 -33.51840733 104.6434853 -35.50390625 98.3046875 C-41.84734373 68.83517478 -25.81352442 39.07328204 -10.36083984 15.07617188 C-7.01631844 9.97358665 -3.55027274 4.96161573 0 0 Z " fill="#FFFEFE" transform="translate(301,117)"/>
<path d="M0 0 C3.24116347 1.62058174 4.07897921 5.08607251 5.5625 8.25 C14.27562406 26.18749262 27.69946899 41.32652342 40.33007812 56.609375 C67.93045933 90.08299448 89.17956419 126.77833715 91.75 170.875 C91.83556152 172.21365112 91.83556152 172.21365112 91.92285156 173.5793457 C92.17334724 178.83137213 92.09786327 183.12996027 90 188 C87.828125 189.7421875 87.828125 189.7421875 85.25 190.875 C84.40953125 191.26429688 83.5690625 191.65359375 82.703125 192.0546875 C79.81037797 193.06631291 77.03139324 193.58340502 74 194 C74.144375 193.36578125 74.28875 192.7315625 74.4375 192.078125 C80.6361248 160.91281697 71.48349145 127.31731047 54.0625 101.1875 C46.47649859 90.10483738 38.18848864 79.60294185 29.58056641 69.30126953 C12.01239106 48.22976303 2.45393391 27.48405976 0 0 Z " fill="#FEFDFD" transform="translate(359,467)"/>
<path d="M0 0 C1.70256721 1.70256721 1.25337483 3.79111162 1.3125 6.125 C1.22065301 17.13351733 -2.40384055 27.1452876 -7 37 C-7.39848145 37.86310791 -7.79696289 38.72621582 -8.20751953 39.61547852 C-18.59428334 61.84522484 -18.59428334 61.84522484 -27 69 C-27.65871094 69.57363281 -28.31742188 70.14726562 -28.99609375 70.73828125 C-42.62329404 81.11968336 -62.63831215 82.43712233 -78.96484375 80.5390625 C-90.83802092 78.68871619 -103.23818339 75.19370794 -113 68 C-113 67.67 -113 67.34 -113 67 C-108.46959223 66.12044472 -104.17484446 65.86555815 -99.5625 65.875 C-98.30566406 65.87242187 -97.04882812 65.86984375 -95.75390625 65.8671875 C-92.08979249 65.99682316 -88.62438446 66.46435742 -85 67 C-65.67093133 68.84313 -44.81446019 68.91619258 -29 56 C-21.38563465 49.70684873 -18.45454227 39.24018793 -17.46875 29.69140625 C-17.1887219 26.13027851 -17.0557326 22.57195286 -17 19 C-17.65226563 18.82984375 -18.30453125 18.6596875 -18.9765625 18.484375 C-25.42885186 16.69524462 -30.20015756 14.79984244 -35 10 C-35.125 7.375 -35.125 7.375 -35 5 C-24.30084632 -1.41949221 -12.1248924 -4.27937379 0 0 Z " fill="#FEFDFD" transform="translate(568,325)"/>
<path d="M0 0 C14.74553954 8.1488508 24.4386302 20.94053561 29.12109375 37.0078125 C29.7360218 39.98692994 29.58170155 42.92730059 29.5234375 45.95703125 C26.58850354 45.53775497 25.63354213 45.07779117 23.5859375 42.83203125 C22.9053125 42.21328125 22.2246875 41.59453125 21.5234375 40.95703125 C19.19451848 41.00155544 19.19451848 41.00155544 16.5234375 41.95703125 C5.46092313 44.81802634 -3.22396604 44.7384325 -13.37109375 38.859375 C-19.85428715 34.01749639 -21.85997621 26.50110062 -23.4765625 18.95703125 C-24.48976563 18.90804688 -25.50296875 18.8590625 -26.546875 18.80859375 C-27.89846161 18.73350561 -29.25002288 18.65796044 -30.6015625 18.58203125 C-31.59929687 18.535625 -31.59929687 18.535625 -32.6171875 18.48828125 C-36.87477512 18.23783492 -40.49742033 17.48174928 -44.4765625 15.95703125 C-43.43575884 12.94001811 -42.52032675 11.98481203 -39.78125 10.24609375 C-9.9914185 -4.20774249 -9.9914185 -4.20774249 0 0 Z " fill="#FEFDFD" transform="translate(450.4765625,255.04296875)"/>
</svg>